<svg width="482" height="56" viewBox="0 0 482 56" fill="none" xmlns="http://www.w3.org/2000/svg">
<rect width="482" height="56" rx="8" fill="#24222E"/>
<path d="M190.023 29.7812V29.5547H192.469V29.7422C192.464 30.2995 192.641 30.7188 193 31C193.359 31.276 193.857 31.4141 194.492 31.4141C195.128 31.4141 195.615 31.2839 195.953 31.0234C196.297 30.763 196.469 30.4193 196.469 29.9922C196.469 29.5443 196.305 29.2005 195.977 28.9609C195.654 28.7161 194.943 28.4505 193.844 28.1641C192.651 27.8568 191.745 27.4349 191.125 26.8984C190.505 26.362 190.195 25.6302 190.195 24.7031C190.195 23.6979 190.576 22.8958 191.336 22.2969C192.102 21.6979 193.13 21.3984 194.422 21.3984C195.708 21.3984 196.74 21.7083 197.516 22.3281C198.297 22.9427 198.688 23.763 198.688 24.7891V25H196.281V24.8281C196.281 24.3438 196.125 23.9557 195.812 23.6641C195.505 23.3724 195.047 23.2266 194.438 23.2266C193.823 23.2266 193.37 23.3438 193.078 23.5781C192.792 23.8073 192.648 24.1198 192.648 24.5156C192.648 24.9062 192.805 25.2031 193.117 25.4062C193.43 25.6094 194.135 25.8568 195.234 26.1484C196.406 26.4661 197.31 26.8984 197.945 27.4453C198.586 27.9922 198.909 28.7812 198.914 29.8125C198.914 30.8906 198.51 31.7292 197.703 32.3281C196.896 32.9271 195.828 33.2266 194.5 33.2266C193.182 33.2266 192.107 32.9323 191.273 32.3438C190.44 31.7552 190.023 30.901 190.023 29.7812ZM200.172 27.6641V26.9609C200.172 25.1432 200.643 23.763 201.586 22.8203C202.534 21.8724 203.753 21.3984 205.242 21.3984C206.732 21.3984 207.953 21.8724 208.906 22.8203C209.859 23.763 210.336 25.1432 210.336 26.9609V27.6641C210.336 29.4818 209.859 30.8646 208.906 31.8125C207.953 32.7552 206.732 33.2266 205.242 33.2266C203.753 33.2266 202.534 32.7552 201.586 31.8125C200.643 30.8646 200.172 29.4818 200.172 27.6641ZM202.641 27.9141C202.641 29.0859 202.875 29.9583 203.344 30.5312C203.818 31.099 204.451 31.3828 205.242 31.3828C206.039 31.3828 206.674 31.099 207.148 30.5312C207.628 29.9583 207.867 29.0859 207.867 27.9141V26.7188C207.867 25.5417 207.628 24.6693 207.148 24.1016C206.674 23.5286 206.039 23.2422 205.242 23.2422C204.451 23.2422 203.818 23.5286 203.344 24.1016C202.875 24.6693 202.641 25.5417 202.641 26.7188V27.9141ZM212.297 33V21.625H216.461C217.779 21.625 218.805 21.9401 219.539 22.5703C220.279 23.2005 220.648 24.0807 220.648 25.2109C220.648 26.3568 220.276 27.2552 219.531 27.9062C218.792 28.5521 217.766 28.875 216.453 28.875H214.711V33H212.297ZM214.711 27.1094H216.352C217.044 27.1094 217.531 26.9401 217.812 26.6016C218.094 26.263 218.237 25.8099 218.242 25.2422C218.242 24.6745 218.099 24.2292 217.812 23.9062C217.531 23.5833 217.044 23.4219 216.352 23.4219H214.711V27.1094ZM218.492 33L215.844 27.7656L218.367 27.625L221.188 33H218.492ZM220.875 23.4609V21.625H230.023V23.4609H226.656V33H224.242V23.4609H220.875ZM231.375 33V21.625H239.016V23.4609H233.766V26.25H238.312V28.0469H233.766V31.1719H239.102V33H231.375ZM239.383 33L243.672 21.5703H246.219L250.57 33H247.984L245.094 24.9766C245.031 24.7995 244.979 24.6302 244.938 24.4688C244.901 24.3073 244.867 24.1458 244.836 23.9844H244.773C244.747 24.1458 244.714 24.3073 244.672 24.4688C244.635 24.6302 244.586 24.7995 244.523 24.9766L241.633 33H239.383ZM241.82 30.5L242.367 28.7266H247.398L247.945 30.5H241.82ZM251.547 33V21.625H255.711C257.029 21.625 258.055 21.9401 258.789 22.5703C259.529 23.2005 259.898 24.0807 259.898 25.2109C259.898 26.3568 259.526 27.2552 258.781 27.9062C258.042 28.5521 257.016 28.875 255.703 28.875H253.961V33H251.547ZM253.961 27.1094H255.602C256.294 27.1094 256.781 26.9401 257.062 26.6016C257.344 26.263 257.487 25.8099 257.492 25.2422C257.492 24.6745 257.349 24.2292 257.062 23.9062C256.781 23.5833 256.294 23.4219 255.602 23.4219H253.961V27.1094ZM257.742 33L255.094 27.7656L257.617 27.625L260.438 33H257.742Z" fill="white"/>
<path d="M289 27.9998H273" stroke="white" stroke-width="1.5" stroke-linecap="round" stroke-linejoin="round"/>
<path d="M284 33C284 33 289 29.3176 289 28C289 26.6824 284 23 284 23" stroke="white" stroke-width="1.5" stroke-linecap="round" stroke-linejoin="round"/>
</svg>
